<?xml version="1.0" encoding="UTF-8"?>
<svg xmlns="http://www.w3.org/2000/svg" xml:space="preserve" id="Graphic_Element" x="0" y="0" style="enable-background:new 0 0 851.2 708" version="1.1" viewBox="0 0 851.2 708">
  <style>
    .st0{fill:#daf7ec;stroke:#daf7ec;stroke-miterlimit:10}.st2{fill:#fff}.st3{fill:#ff4a00;stroke:#ff4a00;stroke-miterlimit:10}.st5{display:none}.st6{display:inline}
  </style>
  <path d="M260.5 45.8c-8.6-16.5-20.9 13.9-24.8 22.5 5.2 21.1 25.5-12.4 24.8-22.5zM167.4 66.3c-.4-.5 0 0-1.7-2.1-.6-.8-.3-.3-.1-.2-5.6-3.7-19.5-45.2-26.7-19.7.9 12.5 33.5 53.9 28.5 22z" class="st0"></path>
  <path d="M165.7 64.2s0-.1-.1-.2c0 .1.1.2.1.2-.1 0-.1 0 0 0z" style="fill:#e8cf82"></path>
  <path d="M108.1 134.8c-22.3-1.3-33.8-19.7-38.1-5.1-3.3 15.8 61.3 27.8 38.1 5.1zM245.1 175.9c54.6-81.7-70.8-112.2-94.7-69.6-40.2 92.9 80.9 116.4 94.7 69.6z" class="st0"></path>
  <path d="M1.6 391.5c6.4-12.9 13.7-25.3 21.7-37.2 8.9-13.3 18.5-26 28.8-38.3 10.8-12.9 22.2-25.2 34.3-36.8 12.3-11.9 25.3-23.1 38.9-33.3 13.2-9.9 27-19 41.5-26.9 1.8-1 3.5-1.9 5.3-2.8.7-.4.4-1.7-.4-1.6h-.3c-1.1.1-1.1 1.9 0 1.8h.3c-.1-.5-.3-1.1-.4-1.6-14.7 7.6-28.7 16.5-42.1 26.2-13.7 10-26.8 21-39.2 32.6-12.4 11.6-24.2 23.9-35.2 36.8-10.5 12.2-20.4 25-29.6 38.3-8.3 12.1-16 24.6-22.8 37.7-.8 1.5-1.5 3-2.3 4.5-.5.8 1 1.7 1.5.6z"></path>
  <path d="M4 388.6h-.4.2c-.2 0-.4-.1-.6-.1-.2 0-.4 0-.6.1-.5.2-.8.7-1 1.1-.2.4-.3.9-.5 1.3.6.1 1.2.2 1.7.2v-.3c0-.2-.1-.5-.3-.6-.2-.2-.4-.3-.6-.3-.2 0-.5.1-.6.3-.2.2-.2.4-.3.6v.3c0 .2.1.5.3.6.1.1.3.2.5.2.4.1.8-.2 1-.6.1-.4.2-.8.4-1.1 0 .1-.1.1-.1.2l.3-.6c0 .1-.1.1-.1.2 0-.1.1-.1.1-.1-.1 0-.1.1-.2.1 0 0 .1 0 .1-.1-.1 0-.1.1-.2.1h.1H3h.3-.2c.3 0 .6.1.9.1.2 0 .5-.1.6-.3.2-.2.3-.4.3-.6 0-.3-.4-.7-.9-.7zM118.9 451.5c-.1-.1-.2-.3-.3-.4v.9c11.2-23.2 22.7-46.4 35.3-68.9 12.8-22.8 26.7-45 42.5-65.9 4.1-5.4 8.2-10.7 12.5-15.8 1.9-2.3 4.1-4.5 5.8-6.9.4-.5.8-1 1.4-1.5 3.4-2.8 8.2-4.1 12.4-5.3 11.4-3.3 23.5-4.9 34.5-9.5 3.4-1.4 7.7-3.4 9.1-7.1 1.5-4-1.8-7.9-4.6-10.4-1.2-1.1-2.5-2.1-3.9-3.1-.9-.7-1.8.9-.9 1.5 2.3 1.7 4.7 3.6 6.4 5.9 1 1.3 1.7 2.9 1.5 4.5-.5 3.3-4.8 5.4-7.6 6.7-5.1 2.3-10.7 3.6-16.1 5-5.9 1.5-11.9 2.8-17.8 4.4-4.5 1.2-9.4 2.5-13.2 5.2-2.1 1.4-3.4 3.6-5 5.4-4.3 5.1-8.5 10.3-12.6 15.5-15.8 20.4-29.8 42.2-42.6 64.6-12.7 22.3-24.3 45.3-35.5 68.4-.6 1.3-1.3 2.6-1.9 4-.6 1.2-1.7 2.4-.9 3.7.6.9 2.1 0 1.5-.9zM203.6 274.9h-.5c.1.5.3 1 .4 1.5 5.6-6.6 13.3-10.4 21.3-13.4 4.2-1.6 8.4-3 12.5-4.7 2.6-1 5.3-1.9 7.7-3.3 2.4-1.4 4.6-3.5 4.9-6.4.3-2.7-1.1-5.2-2.7-7.2-2.3-2.8-5.4-4.9-8.5-6.7-4-2.3-8.3-4-12.7-5.4-10.1-3.1-21-4.2-31.4-2.7-10.9 1.6-21.2 6.7-28.3 15.3-.9 1.1-1.8 2.3-2.6 3.5-.4.6.1 1.4.8 1.3 2.6-.1 4.6-2.1 6.4-3.9 2.2-2.3 4.4-4.9 7.3-6.3l-.9-1.5c-.5.3-.9.6-1.4.9-1 .5-.1 2.1.9 1.5.5-.3 1-.6 1.4-.9.9-.6.1-2-.9-1.5-2.7 1.3-4.8 3.5-6.8 5.6-1.6 1.6-3.6 4.2-6 4.3.3.4.5.9.8 1.3 6.1-9.1 15.5-15 26.1-17.3 10-2.2 20.7-1.6 30.6 1 7.9 2 16.4 5.2 22.4 10.8 1.8 1.7 3.6 3.9 3.9 6.3.3 2.3-1.1 4.2-3 5.5-1.6 1.1-3.4 1.8-5.2 2.6-4.1 1.7-8.2 3.2-12.3 4.7-7.4 2.7-15 5.7-21.1 10.8-1.6 1.3-3 2.7-4.3 4.3-.4.5-.3 1.3.4 1.5.4.1.6.1 1 .1.9.1 1-1.7-.2-1.6zM31 343.4c3.8 2 7.1 5 10.4 7.6 6.1 4.7 12.2 9.4 18.4 14 15.8 11.5 32.3 22.5 50.3 30.2 9.3 4 19.2 7.1 29.3 7.7.5 0 .8-.4.9-.9v-.6c.1-1.1-1.7-1.1-1.8 0v.6l.9-.9c-9-.5-17.7-3.1-26-6.5-9.2-3.7-18-8.4-26.5-13.5-15-9.1-29.1-19.6-43-30.4-2.5-1.9-5-3.9-7.5-5.7-1.5-1.1-3-2.3-4.7-3.2-.8-.5-1.7 1-.7 1.6zM166.7 211c-12.8-7.3-24.6-17.5-30.4-31.3-4.5-10.7-4.7-22.7-.9-33.7 3.9-11.2 11.7-20.8 21.2-27.7 10.5-7.5 23.1-11.8 36-12.4 15.5-.7 30.7 3.9 44 11.7 1.9 1.1 3.7 2.3 5.5 3.5.9.6 1.8-.9.9-1.5-13.5-9.1-29.2-15.1-45.5-15.5-13.5-.3-27 3.3-38.5 10.5-10.3 6.5-19 15.9-23.9 27.1-4.8 10.9-5.7 23.2-2.1 34.6 4.5 13.9 14.9 24.9 26.9 32.8 1.9 1.2 3.8 2.4 5.8 3.5 1.1.5 2-1 1-1.6zM142.1 62.2c3.6 9.9 8.7 19.2 14.4 28.1.8 1.2 2.7.1 1.9-1.1-5.6-8.7-10.7-17.8-14.2-27.6-.4-1.3-2.6-.7-2.1.6zM74.5 148.1c10 2.3 19.8 5.9 29.2 10.2 1.3.6 2.4-1.3 1.1-1.9-9.5-4.4-19.5-8.1-29.7-10.4-1.4-.4-2 1.7-.6 2.1zM240.7 75.2c-2 .4-2.7 2.4-3.1 4.2-.5 2.3-1 4.6-2.3 6.6-.3.5-.1 1.2.4 1.5.5.3 1.2.1 1.5-.4 1.3-2 1.9-4.2 2.4-6.5.1-.4.2-.9.3-1.3.1-.2.1-.4.2-.6 0-.1.1-.2.1-.3.1-.3-.1.2 0-.1.1-.2.1-.3.2-.4 0-.1.2-.2 0-.1l.2-.2c.1-.1-.1 0 0 0s.1-.1.2-.1c.2-.1-.2 0 .1 0 .1 0 .2-.1.3-.1.6-.1.9-.8.8-1.4-.1-.7-.7-1-1.3-.8zM278.1 296.7h-.9c.1.7.2 1.4.3 2.2 24.7-5 49.4-10.3 74-15.8 24.9-5.6 49.8-11.3 74.7-17.2 14-3.3 28-6.6 41.9-9.9 1.4-.3.8-2.5-.6-2.1-24.9 5.9-49.9 11.8-74.9 17.6-24.8 5.7-49.6 11.3-74.4 16.7-13.8 3-27.5 5.9-41.3 8.6-1.2.2-.9 2.2.3 2.2h.9c1.4-.1 1.4-2.3 0-2.3z"></path>
  <path d="M474.6 167.9c-.1-.2-.2-.3-.3-.5-.7-1-2.4-.4-2 .9 3.5 12.9 7.2 25.8 10.8 38.8 2 7.1 4.1 14.2 5.3 21.4.3 2 .6 4 .5 6.1 0 1-.1 1.3-.3 2.2-.1.4-.2.7-.3 1.1 0 .2-.1.3-.2.4l-.1.3c-1.2 2.7-3.8 4.7-6.1 6.4-4.2 3.2-8.5 6.2-12.5 9.7-5.5 4.8-11.5 10-14 17.2-.7 1.9-.9 4.2.2 6 1.1 1.7 3.1 2.5 5 2.9 6 1.2 12.7-.2 18.6-1.3 7.8-1.4 15.5-3.2 23.2-4.8 5.9-1.2 12.3-2.7 18.3-2.2.7.1 1.6.2 2.5.6-.2-.2-.4-.3-.7-.5 8.9 16.9 17.9 33.9 27.6 50.5 2.6 4.4 5.2 8.8 7.9 13.1.8 1.2 2.7.1 1.9-1.1-9.1-14.4-17.3-29.4-25.3-44.4-2-3.7-4-7.4-5.9-11.2l-2.7-5.1c-.6-1.2-1.2-3.1-2.5-3.5-2.5-.9-5.4-.7-8-.4-8.4.7-16.8 2.8-25 4.6-8.1 1.7-16.4 3.8-24.7 3.9-2.5.1-5.3 0-7.3-1.2-.6-.4-1.2-1-1.3-1.7-.2-.9-.1-1.8.2-2.9 1.1-3.8 3.8-7.5 6.6-10.2 3-3 6.1-5.8 9.4-8.5 4.1-3.4 8.6-6.3 12.7-9.7 2.8-2.4 4.7-5.4 5-9.1.2-2.4-.1-4.8-.4-7.2-.6-3.5-1.4-7.1-2.3-10.5-3.2-12.4-6.8-24.6-10.3-36.9-1.2-4.4-2.4-8.7-3.6-13.1-.7.3-1.3.6-2 .9.1.2.2.3.3.5.8.8 2.7-.3 1.8-1.5z"></path>
  <path d="M484.5 595.5c15.6 6.1 38.9 22.8 9.6 31.4-17.2 4.1-36.4-7.5-49.7 8.9-11.1 8.6-65.4 107.1-47 59.2-57.5-17.9-88.3-34.4-124.1-71.6-7.2 7.2-11.7 14.4-17.9 24.8 110.2 89.2 60.3 59-3 5.9-33.8 21.5 52.5-86 65.8-87.3-.1-.2-.2-.5-.3-.7-82.5 16.8-40.5 16.6-69.6-88.2-43.6-214.8-47.6-160.1 1.8-178.8 75.4-16.9 150.3-34.7 226.7-51.2 37.9-18.3-19.1-62.3-2.7-82.4 19.1 3.5 37.1 16.2 56.5 23.9 17.5-10.1 46-62.7 52.7-33.9 51.8-7.8 71.7-40.9 96.4-74.3 24.2-36 45.1-57.5 42.9-67.6 5-8.1 27.4-26.4 9.4.9 33.3 23.3 67.2 48.4 91.7 83.8 2.7-7.4 41.6-56.6 21.8-20.3-63.9 77.9-151.9 174.7-205.3 183.7-13.4 9.7-33.6 4.8-51 8.4 8.1 40.7 11.8 83.1 22 124.6 13.4-32.3 47.6-20.5 72.1-9.7 8.8-6.3 17.8-12.6 26.7-19-.2-3.2.4-3.7 3.5-2.4-1-1.4 1-7.3 3.4-2 17.2-13.4 22.1-12.6 33.1 5.8 9.2 16.4 14.9 20.7-4.4 34.2-.1 1.8.3 5.9-4.3 2.8-9.1 6.9-18.3 13.9-27.6 20.9 10.7 64.8 157.6 231.6 107.1 186.5-34.5 25.3-73.7 51-118.4 54.3.8 74-35.4-143.4-45.6-144.8-3.3-17.2-20.3-14.5-32.3-26.5 7.9 17-6 13.7-21.4 16.5-23.7 5.1-43.8 11.2-68.7 13.7 2.5 5.7 1.3 10.4-3.5 14.2 35.3 25.2-27.6 48.4-46.4 56.3zM309.1 293.8c3.2-1.4 8.3-2.8 13.5-4.3 0-.1-.1-.3-.1-.4-7.2 1.7-14.4 3.5-21.6 5.2 0 .1.1.2.1.4l8.1-.9c-5 1.5-10 2.9-15.3 3.5 1.1-.5 2.3-1.1 3.4-1.6-.1-.2-.1-.3-.2-.5-1.6.5-3.2 1.1-4.8 1.6-.5 2.2-2.4 1.8-3.9 2.2.5-.4 1-.7 1.6-1.1 0-.1-.1-.2-.1-.3-.9.3-1.8.5-3.1.9.8.2 1.2.3 1.7.4-18.9 6.4-40.1 10-60.7 15.3.6 7 .5 13.7 2.1 20.2 76.9-18.3 155.3-31.4 232.6-51.9-11.9-4.6-1.7-16.9 5.5-23.4-45.2 6.9-90.8 14.4-136.1 27.6 8.4-.3 16.2-3.2 24.4-4.5-14.3 4.6-30.8 8.6-47.1 11.6zM727.5 19.6c-31.1 40.8-55.6 92.3-99.2 123.7-15.6 12.5-76 16.9-50 32.1 4.6 4.2 45.5-3.5 40.5 2.4-104.9 77.8-35.8 60.5-1 37.4 28.2-10.5-50.8 30.5-23.7 37.2 25 3.4 59.6-32 57.3-21.4-6.5 8.9-17 12.7-19 24.9 58 5.6 166.9-134.4 186.6-154.6-26.8-29.7-55-60.9-91.5-81.7zM423 657.8c38.7-62.1 53.7-17.8 81.2-43.2-3.5-16.9-38.5-12.8-30.5-20.6 44.8-21.9 109.6-57.4 15.3-46 7-9.2 25.4-6.6 36.4-14.5 10.7-22.8-44.7-1.6-50.2-6.3 84.7-33.5 3.4-32.3-33.9-21.4-51.5 13.6-95.4 42.3-132.6 80.4 32.2 32.4 73.1 52.5 114.3 71.6zM242.5 413.3c116.1-22.3 231.4-51.5 348.7-72.5-3.9-21.7-5.7-45-10.3-68.1-9.9 19.1-9.1 77.3-25.7 64.7-27.3-26.3-14.6-60.2-60-56.8-89 17.7-176.8 37.3-265.4 58.1 3.4 24.9 9.4 49.4 12.7 74.6zm25 8.9c4.7 29.6 10.9 60.4 15.5 91.3 119.6-116.4 91.5-106.7 210.3-38.6 25.1-20.6 50.2-41.1 75.4-61.7-3.3-16.5-6.4-32.9-10-49.4-95.6 22.1-193.1 43.2-291.2 58.4zm262.3 81.1c-162.1-103.6-126-97-245.9 14.8 4.3 9.3.7 30.8 10.8 28.8 23.2-3.8 46.1-2.9 67.8-12.8 67.6-41.4 154.6-52.4 155.7-29.1 3.7-.6 7.4-1.1 11.6-1.7zm241.9 41.4c-25.4-35-52.9-70.3-64.4-114.3-14.5 7.2-28.1 26-40.2 25.5-21.6 5.9-21.3-19.8-30.4-32-27.5-17.9-20 43.9-16.1 57.1 5.6 11.6 17.6 18 30.7 24 21.1 19.2 20.8 51.7 29.7 78.1 32.3-3.1 63.8-18.7 90.7-38.4zM462.4 275.4c92.4 5.3 36.4-24.7 98.4 57.5.2-.1.4-.1.6-.2 21.3-81.7-2.8-61.2 68.1-73.5 3.5-24.4-61 20.1-40.4-24.1-39 12.8-35.6-13.5-9.9-32 3.3-5.5 0-14.3-.3-22.9-11.5.3-16.2-16.7-2.8-23-.7-1.3-.3-3-1.7-4.5-68.1 66-22 42.1-98.8 19.8 31.9 85.3 27 45.2-13.2 102.9zm-218.9 144c10.2 47.8 17.1 97.5 28.8 146.1 25.6-3.8 56.2-2.4 77.2-22.7-17.5-1.9-69.3 19-65.2-.2C261.5 397 256.4 421.9 271.8 416c382.8-60.6 265.4-101.5 313.6 58.5 4.7-8.2 9.2-16.1 13.9-24.4-15.1-12.6-7.8-37.2 2.8-51-2.4-16.6-6.2-36.1-9.5-53.9-115.9 23.5-233.7 44.9-349.1 74.2zm439 169.1c4 8.7 2.9 38 11.9 34.7 33-7.9 68.2-21.3 95.6-44 15.7 10-95 56.9-99.4 48.2 1.7 12.1 5.9 23.4 9.2 35 42.4-4.5 83.5-27.3 117.8-53.9-14.1-19.1-30.2-36.1-42.8-58.8-1.7.4-2.7 4.7-7.4 3.7-23.6 20.4-53.7 28.7-84.9 35.1zm-262.2 73.1c-43-14.1-80.7-42.3-116.2-71.3-9.1 8.2-17.7 16.5-25.1 26 33.7 32.3 75.2 57.4 120.1 74.6 8-7.7 12.8-19 21.2-29.3zm152.8-166.5c16.6-18-1.3-56.4-3.4-78.5-23.5 19.4-49.1 39.4-73.3 60.3 50.8 35.3 31.6 22.9 76.7 18.2zm69.9-72.2c2 4.8 7.8 34.9 19.6 28.8 22.6-18.2 49.1-33.8 72.1-53.7-7.5-8.6-13-15.2-21.9-25.7-21.8 17.3-46.4 33-69.8 50.6zm-132.9 93.6c.1.2.1.4.2.6 34 5.5 70.1-8.2 105.2-14.5-1-4.8-1.9-9.3-2.9-13.7-7.1.7-14.6 1.9-23.5 3.8-2.9 12.2-65.7 4.1-79 23.8zm107.9-94c3.1-3.5 7-5.4 11.1-6.1-.6-16.9 13.9-34.3 32.5-34.8-25.6-17-61.9 14.8-43.6 40.9zm-2.3 3.1c-6.3-5.7-7.7-12.6-6.3-21.6-33.1 7.9-3.4 81.4 6.3 21.6zm124.7-31.1c16.9-8.6 13.6-10.4 2.7-27.6-6.8-12.4-8.4-9.1-21.8-.1 5.4 8.3 9.9 20 19.1 27.7zm-64.7-3.8c0-.3-.1-.5-.1-.8-35.3-20.8-75.5 66.2.1.8zm-74.9 93.8c5.2-1.5 10.3-3 15.4-4.4-2.5-7.8-4.1-17.5-4.8-27.4-9-1-12.6 16.6-18.5 24.5 2.5 2.3 5 4.6 7.9 7.3zm4-300.2c-6.5-1.4-12.5-2.3-19-2.5.4 5.1.8 9.9 1.2 15.1 6-4.3 11.7-8.3 17.8-12.6zm1.5 207.6c.5 2.7.1 5.6 1.7 8 0-2.8-.5-5.5-1.7-8zm14.9 113.3c.9-.5 1.4-.7 1.9-1-.6-1.4-1.1-2.5-1.9-4.2v5.2zM276.1 620c.7 1.4.7 1.4 2.2 1.8-.8-1.3-.8-1.3-2.2-1.8zm302.7-128.6c.2.1.5.3.7.4.5-.9 1-1.8 1.5-2.8l-.6-.3c-.5.9-1 1.8-1.6 2.7zm-270.6 90.5-.3-.3-.8.8.2.2c.3-.2.6-.5.9-.7z"></path>
  <path d="M153.3 115c-.2.1-.3.2-.5.2-29.3 24.4-29.9 85.4 11 100.6-53.7 28-97.8 74.7-132.8 124.4-.4 0-35 53.5-25.6 50.6 9-11.8 15.6-29.1 25.7-41.7 32.2 21.2 66.8 41.3 103.9 56.3-5.7 14.2-17.9 32.4-18.7 48.3 21.3-34.5 38.3-78.9 64.2-114.4 28.9-64.2 117.9-54.2 85.6-80.1 12-2.7 24.8-18.9 8.3-27.7 30.6-16-5-31.7-24-32.4 4.5-8.6 5.4-17.3 8.3-28.1-.1 0-.2.1-.3.1 13.8-62.5-56.8-81.9-102.1-57.6v-.8m-8.2 84.7c-42.3-62.7 36.7-112.4 87.3-78.6 29.2 24 22.6 81.1-11 91.3-4.2-9.6-5-19.7-7.4-29.4 44-27.6-19-49.3-7.4-1.4-2.8 1.5-5.7 1.7-8.9 2.1-25.6-62.2-57.5 15-2.2 5.5 3.6 9.6 5.5 19.7 9.3 29.7-3.1 2.3-9-2.5-12.5 1.5-12.4-9.6-34.5-6.8-47.2-20.7zm99.2 41.6c-2.7-1.5-5.2-2.9-8-4.5 3.4-2.8 11-10.1 13.2 1.5-1.8 1-3.5 2-5.2 3zm.6 9.2h-.4c-.1-.6-.1-1.2-.2-1.8h.4c.1.6.2 1.2.2 1.8zm-5.5-20c-5.7 5.1-12.1 2.7-20.3-.4 2.3-3.1 10.7-5 11.3-11-8.6.7-20.2 9.3-31.3 8.6-.4-.8-.8-1.5-1.4-2.6 12.4-5.2 27-6.6 40.1-14.5 2.8 5.3 4.7 11.3 6.6 16.9-1.8 1-3.4 2.1-5 3zm-25.1-15.4c-.6.3-2.8 1.4-5.8 2.4-3.1-10-6-19.5-9.1-29.3 2.6-.9 5.1-1.8 7.8-2.8 2.4 10 4.7 19.8 7.1 29.7zm-4.7-52.6c.2-.5.5-1 .7-1.5l.3.1c-.2.5-.4 1.1-.7 1.6l-.3-.2zm2.8 4.8c5.2-20.3 24.9-5.9.9 11-.9-3.9-1.3-7.5-.9-11zm3.9 39.6 1 3.4c-.2.1-.3.2-.5.3-.6-1.2-1.2-2.3-.5-3.7zm-22.5-23c-4.4 2.1-14.8 1.6-19.9-2.4-17.9-26.3 15.4-21.7 19.9 2.4zm-41.4 25.7c4.4 1.8 9.1 3.1 13 5.9-4.9-.9-9.2-2.8-13-5.9zM267 271.4c-13.1 13.1-35 13.4-52.1 21-36.4 26.5-51.8 72.5-77.6 109.1-35.1-16.1-69.6-34.4-101.7-58.9 40.9-64 147-151.7 156.4-115.6-6.7-.4-35 24.6-13.7 11.9 40.2-29.4 102.9 24.8 39.8 20.1-6.4 1.4-12.5 8.8-17.2 15.7 1.7 8.8 14-11.6 22.2-12.3 5.5 1.8 52.7-7.3 43.9 9zm9.6-33c7.6 15.8-16.9 18.4-29.1 18.8 2.2-4.3 5.2-8 3.1-12.9 2.8-1.7 10.4-4.5 7.8-10.8 6.6-.2 13-.1 18.2 4.9zm-6.5-10c-4.7.5-9.4.5-13.9 0-1.3-6.9-12.1-17.1-8.4-24.6 12.4 1.7 54.7 14 22.3 24.6zM91.6 546.9c-38.6 11-38.9-30.7 3.3-26.1 12.8-70.8 122.8-57.5 113.4 16.5 10.1 3 24.8 1.1 35.6 5.3 1.3 31.4-6.8 62.4-13.8 93.7-137-6.9-96.5 7.3-89.9-38.3-34.2-10.5-42.6-23.9-48.6-51.1zm52 50.8c-.8 9.5-5.4 19-8.7 30 30.1-.2 61.7 2.5 92.8 4.6 6-28 10.1-57.5 12-87.5-10.5-1.4-20.8-2.9-31.3-4.3-6.3 39.8-21.9 59.7-64.8 57.2zM99.2 531c-1.1 61.8 99.3 68.7 104.4 5.3 6.2-77.6-103.8-79.7-104.4-5.3zm93.8 40.5c-.1-.1-.3-.2-.4-.3-28.8 22.9-67 24.4-89.4-9.2 9.5 37 69.2 42.7 89.8 9.5zm-98.5-46.7c-26.4-3-38.1 26.2-.7 16.9.3-5.6.5-11 .7-16.9z"></path>
  <path d="M727.5 19.6c35.1 19.7 63.8 50.8 91.5 81.7-42 48.2-139.3 162.8-186.6 154.6-.3-10.5 16.7-17.5 18.9-26.9-18.2 6.3-36.5 28.4-60.5 22.5-11-17.9 29.9-25.8 33.6-38.5-.4-.6-1.9-1.7-9 4-13.4 9.4-65.9 33.4-48.1 2.9 15.7-16.4 36.8-25.1 51.9-43 .9-5.6-27.1 5.3-44.6-2.9-17.6-15.4 52.8-22.3 60.4-34.7 38.6-33.6 61.8-78.1 92.5-119.7zM423 657.8c-40.3-18.7-81.8-38.9-114.2-71.7 117.1-121.9 267.1-87.7 176-65.5-3.1 1.1-15.9 6.9-5.5 7.6 47.4-13.2 69.8 3 19.7 14.3-3.1.9-14.9 3.5-7.3 7.4 98.7-18.4 12.1 29.9-19 45.8-2.3 3.6 34.2 6.8 31.2 20.8-48.5 20.7-44.2-14.5-80.9 41.3z" class="st2"></path>
  <path d="M242.5 413.3c-3.3-25.1-9.3-49.6-12.6-74.7 89.9-19.6 180.5-44 271.6-57.6 29.5-3.1 30.8 22.1 42.7 41.7 27 52.8 27.1-34.2 36.7-50 4.3 21.4 6.3 45.1 10.3 68.1-116 20.7-231.9 50-348.7 72.5zm83.3-44.6c138.5-36.1 200.5-35.8 191.5-56.2-12.5-16.5-76.7 12.9-90.1 10.4-21.5 4.6-154.8 26-101.4 45.8z" class="st3"></path>
  <path d="M267.5 422.2c97.2-14.9 194.6-36.1 291.1-58.4 3.6 16.5 6.7 33 10 49.4-25.2 20.6-50.3 41.2-75.4 61.7C361 388.8 382.1 425.6 283 513.5c-4.5-29.9-10.6-60.3-15.5-91.3zm216.7-14c.4 23.8 26 23.3 34.8 6 1.6-21.7-30.9-29.2-34.8-6z" class="st2"></path>
  <path d="M529.8 503.3c-4.2.6-7.9 1.1-11.6 1.6-18.8-38.4-147.9 21-163.2 33.4-78.9 11.2-61.9 17.6-71.1-20.2 129.3-132.2 106.4-97.2 245.9-14.8zM771.7 544.7c-26.3 19-56.6 35-90.6 38.5-27.4-121-33.8-54.4-61.7-105.9-2.5-14.6-9.3-76.5 20.4-49.9 3.3 12.7 9.8 34.3 27.3 28.6 2.3 6.1 35.5-24.4 40.2-25.5 10.9 42.3 38.2 78.4 64.4 114.2z" class="st2"></path>
  <path d="M462.4 275.4c48.5-62.4 38.8-24.9 13.1-103 85.1 30 33.6 37.3 98.8-19.8 1.4 1.5 1 3.1 1.7 4.5-9.7 3.2-12.2 23.2 2.8 23-1 6.8 6.2 18.5-1.9 24.8-25.8 19.5-24 41.9 12.1 30.1-19.5 45.9 44.1-1.7 40.4 24.1-78.6 7.5-48.1 13.3-68.1 73.5-.2.1-.4.1-.6.2-59.8-86-17.1-50.5-98.3-57.4z" class="st0"></path>
  <path d="M243.5 419.4c114.9-29.2 232-50.4 349-74.2 2.9 17.9 7.8 36.5 9.4 55.9-12.9 12.4-16.3 37.5-2.7 49-4.7 8.2-9.2 16.2-13.9 24.4-32-142.2-9.4-113.3-48.9-109.6-90.1 18.5-176.4 37-267.5 51.7-11 .5-4 10.2-3.2 18.7 29.6 149.3-1.6 113.7 83.9 107.5-19.8 19.4-50.1 19.1-77.2 22.7-11.6-47.5-18.4-97.2-28.9-146.1zM682.5 588.5c29.2-6.3 60-13.6 85-35.2 1.8 1.1 2.8.1 7.4-3.7 11.1 20.4 27.9 39.3 42.8 58.8-34 26-73.4 49.1-117.8 53.9-3.4-11.6-7.6-22.9-9.2-35 9 8.6 120.6-43 98-47.4-11.1 10.7-24 18.4-39.8 24.1-75 31.3-55.2 24.1-66.4-15.5zM288.2 299.1c1.5-.4 3.5 0 4-2.2 1.6-.5 3.2-1.1 4.8-1.6.1.2.1.3.2.5-1.1.5-2.3 1.1-3.4 1.6 5.3-.6 10.4-2 15.4-3.6l-.1.1c14.6-2.8 31.1-6.4 46.9-11.5-8.1 1.3-16 4.2-24.4 4.5 43.5-12.8 90-20.7 136.1-27.6-4.9 4.8-18.6 18.1-5.5 23.4-76.2 20.2-155.1 33.4-232.6 51.9-1.6-6.5-1.6-13.2-2.1-20.2 19.4-5 40.2-8.5 60.7-15.3zm-49.1 26.6c4.1.5 9-12 .1-10.4-3 1-7.2 9.3-.1 10.4zm20.2-8.5c.2-6.3-11.8-5.1-9 2.9 2.2 3.5 8 1.7 9-2.9zm8.2.5c7.2-.1 7-12.1-2.7-7.3-2.6 2.3-3.2 6.6 2.7 7.3zM420.3 661.6c-7.3 8.6-11.9 19.9-21.2 29.3-43-16.4-85.8-41.6-120.1-74.6 7.4-9.5 16-17.8 25.1-26 34.8 28.3 71.9 56.8 116.2 71.3z" class="st2"></path>
  <path d="M573.1 495.1c-51.4 11.7-43.6 1.8-76.7-18.2 23.6-20.2 48.2-39.6 73.3-60.3 9.4 64.8 19.1 50.4 3.4 78.5z" class="st2"></path>
  <path d="M643 422.9c22.6-17.1 46.4-32.2 69.8-50.6 6 7.3 14.3 16.9 21.9 25.7-88.8 66-76.3 67.9-91.7 24.9z" class="st3"></path>
  <path d="M510.1 516.5c11.7-18.5 82.8-13.6 79.1-23.8 6.4-1.3 14.6-3 23.5-3.8.9 4.3 1.9 8.9 2.9 13.7-34.7 6-69.6 19.8-105.2 14.5-.2-.3-.3-.4-.3-.6zM618 422.5c-17.6-23.2 15.3-58.7 43.7-40.9-17.5.8-32.8 15.8-32.5 34.8-4.3.7-8.2 2.6-11.2 6.1z" class="st2"></path>
  <path d="M615.7 425.6c-9.7 60.5-39.3-14.8-6.3-21.6-1.2 6.9-.6 16 6.3 21.6zM740.4 394.5c-8.3-6.9-12.5-17-19.1-27.7 2.1-.7 12.9-11.4 17.2-7 6.6 12.6 24.9 25.7 1.9 34.7zM675.7 390.7c-79.1 66.6-30.7-23.6-.1-.8 0 .2 0 .5.1.8z" class="st2"></path>
  <path d="M600.8 484.5c-2.8-2.6-5.4-5-8-7.4 6.1-6.5 7-23.4 18.5-24.5.5 7.8 1.8 18.3 4.8 27.4l-15.3 4.5zM309.2 293.8c-2.7.3-5.5.6-8.2 1 0-.1-.1-.2-.1-.4 7.2-1.7 14.4-3.5 21.6-5.2 0 .1.1.3.1.4-3.3 1-9 2.4-13.4 4.2zM606.3 391.9c1.2 2.5 1.7 5.2 1.7 8-1.6-2.5-1.2-5.3-1.7-8zM621.2 505.2v-5.1c.7 1.6 1.2 2.8 1.9 4.2-.5.1-1.1.4-1.9.9zM276.1 620c1.4.5 1.4.5 2.2 1.8-1.5-.4-1.5-.4-2.2-1.8zM578.8 491.4c.5-.9 1.1-1.8 1.6-2.7l.6.3c-.5.9-1 1.8-1.5 2.8-.2-.1-.5-.3-.7-.4zM288.3 299c-.4-.1-.9-.2-1.7-.4 1.2-.4 2.1-.6 3.1-.9 0 .1.1.2.1.3-.6.4.2-.1-1.5 1zM308.2 581.9c-.3.2-.6.5-.9.7l-.2-.2.8-.8.3.3zM35.5 342.5C76.5 278.6 182.6 190.9 192 227c-4.3-.7-33.9 21.4-16 13.6 18.7-15.2 47.3-12.7 66.2 2.9 10.8 22.2-17 11.9-28.9 17.4-3.3 1.4-21.3 22.2-6.1 13.4 21.8-28.1 115.9-8.4 15 15.1-37.6 14.2-68 91.1-84.9 112-35.2-16.1-69.7-34.3-101.8-58.9zM256.2 228.3c-1.3-6.9-12.1-17.1-8.4-24.6 42.4 6.6 45.1 26.7 8.4 24.6z" class="st2"></path>
  <path d="M247.5 257.2c2.2-4.3 5.2-8 3.1-12.9 2.8-1.7 10.4-4.4 7.8-10.8 38.4 1.3 14.9 26.6-10.9 23.7zM222.1 227.8c2.3-3.1 10.7-5 11.3-11-8.6.7-20.2 9.3-31.3 8.6-.4-.8-.8-1.5-1.4-2.6 12.4-5.2 27-6.6 40.1-14.5 2.8 5.3 4.7 11.3 6.6 16.9-6.9 5.6-15.3 8-25.3 2.6zM252.5 236c-1.8 1-3.5 2-5.2 3-2.7-1.5-5.2-2.9-8-4.5 3.4-2.8 11-10.2 13.2 1.5zM168.4 213.2c-4.9-.9-9.2-2.8-13-5.9 4.4 1.8 9.1 3.1 13 5.9zM219.7 208.2c-.5-1.1-1.2-2.2-.5-3.6.3 1.1.6 2.3 1 3.4-.1.1-.3.2-.5.2zM247.6 248.2c-.1-.6-.1-1.2-.2-1.8h.4c.1.6.1 1.2.2 1.8h-.4zM212.6 160.2c.2-.5.5-1 .7-1.5.1 0 .2.1.3.1-.2.5-.4 1.1-.7 1.6 0 0-.2-.1-.3-.2zM99.2 531c1.3-74.9 107.3-70.7 104.7 2.3-3 68.5-106.4 59.1-104.7-2.3zm56.5 43c55.3 2.9 58.1-87.5 3.5-90-68.3-6.7-70.4 92.8-3.5 90z" class="st2"></path>
  <path d="M193 571.5c-22.3 34.2-80.2 26.8-89.8-9.5 21.9 32.7 59.3 32.8 89.4 9.2.1 0 .2.2.4.3zM94.5 524.8c-.2 5.9-.5 11.2-.7 16.9-28.2 10-35.4-17 .7-16.9z" class="st0"></path>
  <path d="M325.8 368.7c-57-21.1 98.4-44.4 107.5-46.7 31.2-2.7 77-26.7 84.7-7.8.7 22.9-87.6 26.3-96.5 30.8-32.3 7.1-62 17.5-95.7 23.7zm-.6-3.3c133.7-34.9 195.2-36.2 189.2-51.7-12.1-12.5-68.9 13.5-81.1 11.4-19.1 4.2-150.3 25.6-108.1 40.3zM484.2 408.2c2.4-20.8 36.7-17.7 34.8 6-9.4 17.3-34.5 17.9-34.8-6zm19-8.5c-23.2-.3-14.1 26.2.6 22 11.1-1.6 13.9-22.5-.6-22zM239.1 325.7c-7 0-3.5-14.3 4.3-9.6 1.4 1.6.8 8.8-4.3 9.6zm-.1-6.1c1.1 1.2.6.8 0 0-1.1.5.1 5 0 0zM259.3 317.2c0 3.5-8.1 7.8-9.5 1-.3-4.8 8.7-8.2 9.5-1zm-3.9.9c-.2-.4-2.6-1.7-2 .6.7-.2 1.4-.4 2-.6zM267.5 317.7c-6.4.5-6-10.2 2.8-8.1 4.3 1.7 3 7.6-2.8 8.1zm.4-3.6c0-.2.1-.4.1-.5-.1.3-.9-.9-1.4.3.4 0 .8.1 1.3.2zM194.9 597c7.6-28.6-8.8 43.1 28.4-9.8-1.2 11.4-27 39.2-28.4 9.8z"></path>
  <path d="M208.1 577.4c-2 2.5.2 9.8-5 12.3-.3-3.3.4-9.8 4-13.7.4.5.8 1 1 1.4zM213 590.5c-.9-2.4-.3-8.8 3.4-12.2.6 2 .9 9.5-3.4 12.2zM155.7 574c-68 2.7-63.7-96.7 3.5-90 55.4 3.1 51 93.4-3.5 90zm36.4-58.8c1.8 12.5-1 31.4-10.2 42.8-1.7 5.5-8.7 8.2-14.6 11.4 23.4-1.2 30.9-38 24.8-54.2z"></path>
  <path d="M325.2 365.4c-43.9-16.3 107.6-39.3 114.7-41.3 28.9-3 67.7-23.8 75.1-8.5-14.9 20-77.9 20.3-94.1 26.2-33.2 7.3-61.4 17.4-95.7 23.6z" class="st2"></path>
  <path d="M503.2 399.7c14.9-1 12.4 22.7-3.1 22.7-15.5-2.7-14.8-23.7 3.1-22.7z" style="fill:#ffbfa6;stroke:#ffbfa6;stroke-miterlimit:10"></path>
  <path d="M239 319.6c-.8 1.3-.4.9 0 0 1.4.1.9 5.1 0 0zM255.4 318.1c-.6.2-1.3.4-2 .6-.3-1.1.3-2.8 2-.6zM267.9 314.1c-.5-.1-.9-.1-1.4-.2.3-.6-.1-.6 1.4-.3.1.1 0 .3 0 .5zM192.1 515.2c6.6 18.4-3 53.7-24.8 54.2 4.2-3.6 11.4-3 14.6-11.4 8.4-10.3 12-27.4 10.2-42.8z" class="st2"></path>
</svg>
